#N canvas 68 97 450 300 12;
#X obj 60 39 inlet;
#X obj 268 52 inlet;
#X floatatom 269 114 5 0 0 0 - - - 0;
#X text 322 87 // scale;
#X obj 151 196 *;
#X obj 142 250 outlet;
#X obj 104 110 -;
#X floatatom 69 143 5 0 0 0 - - - 0;
#X obj 55 111 f;
#X connect 0 0 6 0;
#X connect 0 0 8 0;
#X connect 1 0 2 0;
#X connect 2 0 4 1;
#X connect 4 0 5 0;
#X connect 6 0 7 0;
#X connect 6 0 8 1;
#X connect 7 0 4 0;
#X connect 8 0 6 1;
