#N canvas 102 23 1782 986 12;
#X obj -191 134 tgl 15 0 empty empty Run 0 -7 0 10 #fcfcfc #000000
#000000 0 1;
#X floatatom -124 132 5 0 0 2 BPM - - 0;
#X obj -77 133 bng 15 250 50 0 empty empty Reset 0 -7 0 10 #fcfcfc
#000000 #000000;
#X obj -167 134 tgl 15 0 empty empty Pause 0 -7 0 10 #fcfcfc #000000
#000000 0 1;
#X obj -54 20 loadbang;
#X obj -42 134 tgl 15 0 empty empty Switch_Direction 0 -7 0 10 #fcfcfc
#000000 #000000 0 1;
#X obj 20 -324 vsl 95 175 0 6 0 0 empty empty kick 0 -9 0 10 #c30200
#faff00 #f1ecff 0 1;
#X obj 159 -325 vsl 95 175 0 6 0 0 empty empty snare 0 -9 0 10 #fdc749
#5ba534 #f1ebff 0 1;
#X obj 296 -326 vsl 95 175 0 6 0 0 empty empty closed\\\ hat 0 -9 0
10 #fbc4c4 #faff00 #f2ecff 0 1;
#X obj 421 -325 vsl 95 175 0 6 0 0 empty empty open\\\ hat 0 -9 0 10
#fce0c3 #529416 #f6f1fe 0 1;
#X obj 535 -139 inlet;
#X obj 589 -139 inlet;
#X obj 631 -141 inlet;
#X obj 680 -140 inlet;
#X obj 731 -141 inlet;
#X obj 774 -140 inlet;
#X obj 819 -139 inlet;
#X obj 865 -140 inlet;
#X obj 917 -140 inlet;
#X obj 963 -143 inlet;
#X obj 1014 -139 inlet;
#X obj 1058 -141 inlet;
#X obj 1105 -139 inlet;
#X obj 1149 -139 inlet;
#X floatatom 535 -114 5 0 0 0 - - - 0;
#X floatatom 589 -114 5 0 0 0 - - - 0;
#X floatatom 631 -116 5 0 0 0 - - - 0;
#X floatatom 680 -115 5 0 0 0 - - - 0;
#X floatatom 731 -116 5 0 0 0 - - - 0;
#X floatatom 774 -115 5 0 0 0 - - - 0;
#X floatatom 819 -114 5 0 0 0 - - - 0;
#X floatatom 867 -160 5 0 0 0 - - - 0;
#X floatatom 917 -115 5 0 0 0 - - - 0;
#X floatatom 963 -118 5 0 0 0 - - - 0;
#X floatatom 1014 -114 5 0 0 0 - - - 0;
#X floatatom 1058 -116 5 0 0 0 - - - 0;
#X floatatom 1107 -112 5 0 0 0 - - - 0;
#X floatatom 1149 -114 5 0 0 0 - - - 0;
#X obj 729 -85 s metroFreq;
#X obj 917 -84 s \$0-reset;
#X obj 130 -82 expr abs($f1 * $f2 * 8), f 8;
#X obj 325 -73 expr abs($f1 * $f2 * 8), f 6;
#X obj 1057 -80 s \$0-yaw;
#X obj 1018 -22 s \$0-pitch;
#X obj 938 -47 s \$0-roll;
#X obj 130 -113 r \$0-pitch;
#X obj 316 -125 r \$0-roll;
#X obj 434 -63 expr abs($f1 * $f2 * 8), f 6;
#X obj 1104 -46 s \$0-energy;
#X obj 450 -121 r \$0-yaw;
#X obj 543 -67 expr abs(6-$f1), f 6;
#X obj 1838 116 r \$0-pitch;
#X obj 1836 154 cheap_derivative;
#X msg 1945 122 1;
#X floatatom 1836 179 15 0 0 0 - - - 0;
#X obj 1839 213 expr abs($f1);
#X floatatom 1840 236 5 0 0 0 - - - 0;
#X obj 1839 263 s \$0-dPitchdt;
#X obj 2002 155 cheap_derivative;
#X msg 2111 123 1;
#X floatatom 2002 180 15 0 0 0 - - - 0;
#X obj 2005 214 expr abs($f1);
#X floatatom 2006 237 5 0 0 0 - - - 0;
#X obj 2161 154 cheap_derivative;
#X msg 2270 122 1;
#X floatatom 2161 179 15 0 0 0 - - - 0;
#X obj 2164 213 expr abs($f1);
#X floatatom 2165 236 5 0 0 0 - - - 0;
#X obj 2004 117 r \$0-roll;
#X obj 2005 264 s \$0-dRolldt;
#X obj 2164 263 s \$0-dYawdt;
#X obj 2163 116 r \$0-yaw;
#X obj 124 -324 vsl 8 175 0 8 0 0 empty empty empty 0 -9 0 10 #c32300
#f9fe01 #000000 0 1;
#X obj 262 -325 vsl 8 175 0 127 0 0 empty empty empty 0 -9 0 10 #fcc749
#5aa533 #000000 0 1;
#X obj 398 -327 vsl 8 175 0 127 0 0 empty empty empty 0 -9 0 10 #fbc4c4
#f9fe01 #000000 0 1;
#X obj 522 -326 vsl 8 175 0 127 0 0 empty empty empty 0 -9 0 10 #fce0c2
#529415 #000000 0 1;
#X obj 107 8 r \$0-dPitchdt;
#X obj 307 23 r \$0-dRolldt;
#X obj 493 24 r \$0-dYawdt;
#X obj 108 39 expr abs($f1*$f2*100);
#X obj 307 48 expr abs($f1*$f2*300);
#X obj 493 48 expr abs($f1*$f2*600);
#X text 2286 153 Calculate derivatives;
#X obj 1198 -138 inlet;
#X floatatom 1198 -113 5 0 0 0 - - - 0;
#X obj 1198 -89 s \$0-energySlider;
#X obj 1323 -138 inlet;
#X floatatom 1323 -113 5 0 0 0 - - - 0;
#X obj 1440 -138 inlet;
#X floatatom 1440 -113 5 0 0 0 - - - 0;
#X obj 1323 -89 s \$0-bpmSlider;
#X obj -268 76 r \$0-drumsToggle;
#X obj -192 -47 expr ($f1 * 150);
#X obj -191 -76 r \$0-bpmSlider;
#X obj 1560 -140 inlet;
#X floatatom 1560 -115 5 0 0 0 - - - 0;
#X msg -54 42 26;
#X obj 1750 -129 inlet;
#X floatatom 1750 -75 5 0 0 0 - - - 0;
#X obj 1750 -100 expr $f1 * 3;
#X obj 636 121 vsl 95 346 0 3 0 0 empty empty empty 0 -9 0 10 #871800
#f9fe01 #000000 0 1;
#X msg 636 -1 set \$1;
#X obj -238 425 s step_idx;
#X obj -110 176 s bpm;
#X floatatom -193 267 5 0 0 0 - - - 0;
#X obj -193 301 / 192;
#X floatatom -192 363 5 0 0 0 - - - 0;
#X obj -235 363 i;
#X floatatom -236 392 5 0 0 0 - - - 0;
#X obj -59 304 r step_idx;
#X text -262 272 Ticks;
#X text -185 318 ticks per step;
#X obj -138 267 s tick_idx;
#X text 1837 71 replace this SHIT with accelerometer->groove calculation
(Do it in PYTHON) :D;
#X obj 1076 158 pyext python_utils.acc_to_groove, f 52;
#X floatatom 1348 64 5 0 0 0 - - - 0;
#X floatatom 1280 71 5 0 0 0 - - - 0;
#X floatatom 1212 81 5 0 0 0 - - - 0;
#X obj 1120 136 bng 15 250 50 0 empty empty empty 17 7 0 10 #fcfcfc
#000000 #000000;
#X obj 1154 315 print EVENT;
#X obj 1120 74 tgl 15 0 empty empty empty 17 7 0 10 #fcfcfc #000000
#000000 0 1;
#X obj 1491 -2 vsl 30 256 0 124 0 0 empty empty gesture\\\ threshold
0 -9 0 10 #fcfcfc #000000 #000000 0 1;
#X obj 1253 355 s gesture_magnitude;
#X obj 1024 356 tgl 15 0 empty empty quantize\\\ gesture 17 7 0 10
#fcfcfc #000000 #000000 0 1;
#X text 1003 373 write gesture to groove;
#X floatatom 1488 270 5 0 0 0 - - - 0;
#X obj 1120 101 metro 90;
#X obj 1568 -3 vsl 30 256 0 100 0 0 empty empty energy_window 0 -9
0 10 #fcfcfc #000000 #000000 0 1;
#X floatatom 1563 301 5 0 0 0 - - - 0;
#X obj 1565 264 i;
#X obj 741 121 vsl 95 346 0 124 0 0 empty empty empty 0 -9 0 10 #146c87
#faff00 #000000 0 1;
#X obj 846 121 vsl 95 346 0 124 0 0 empty empty empty 0 -9 0 10 #871800
#f9fe01 #000000 0 1;
#X obj 740 -35 r gesture_magnitude;
#X obj 1462 370 s gesture_bang;
#X obj 779 58 r gesture_bang;
#X obj 821 103 bng 15 250 50 0 empty empty empty 17 7 0 10 #1a5fb4
#feffc6 #000000;
#X obj 757 103 bng 15 250 50 0 empty empty empty 17 7 0 10 #1a5fb4
#feffc6 #000000;
#X obj 773 103 bng 15 250 50 0 empty empty empty 17 7 0 10 #1a5fb4
#feffc6 #000000;
#X obj 789 103 bng 15 250 50 0 empty empty empty 17 7 0 10 #1a5fb4
#feffc6 #000000;
#X obj 805 103 bng 15 250 50 0 empty empty empty 17 7 0 10 #1a5fb4
#feffc6 #000000;
#X obj 741 103 bng 15 250 50 0 empty empty empty 17 7 0 10 #1a5fb4
#feffc6 #000000;
#X obj 1662 -5 vsl 30 256 0 2 0 0 empty empty gesture_sensitivity 0
-9 0 10 #fcfcfc #000000 #000000 0 1;
#X floatatom 1661 265 5 0 0 0 - - - 0;
#X obj 1654 287 s gesture_sensitivity;
#X obj 1280 -39 loadbang;
#X msg 1287 10 65;
#X msg 1550 -47 7;
#X msg 1618 42 1;
#X obj 1273 243 r gesture_sensitivity;
#X obj 1256 272 *;
#X obj 740 1 pack \$1 200;
#X obj 740 30 line;
#X obj 1744 8 vsl 30 256 0 3 0 0 empty empty gesture\\\ debounce\\\ time
0 -9 0 10 #fcfcfc #000000 #000000 0 1;
#X floatatom 1746 314 5 0 0 0 - - - 0;
#X obj 1746 337 s gesture_debounce;
#X obj 1363 107 r gesture_debounce;
#X floatatom 105 1297 5 0 0 0 - - - 0;
#X floatatom 154 1306 5 0 0 0 - - - 0;
#X floatatom 206 1306 5 0 0 0 - - - 0;
#X floatatom 1439 427 5 0 0 0 - - - 0;
#X floatatom 1485 445 5 0 0 0 - - - 0;
#X obj 1374 441 bng 15 250 50 0 empty empty empty 17 7 0 10 #fcfcfc
#000000 #000000;
#X obj 1386 483 pack f f;
#X obj 1339 544 print;
#X msg 1403 520 groove_val \$1 \$2;
#X obj 162 1145 r v3;
#N canvas 348 230 1470 930 v_ut_unpacker 0;
#X obj 696 219 pyext python_utils.groove_to_vars, f 66;
#X obj 731 74 bng 15 250 50 0 empty empty empty 17 7 0 10 #fcfcfc #000000
#000000;
#X floatatom 935 93 5 0 0 0 - - - 0;
#X floatatom 982 94 5 0 0 0 - - - 0;
#X obj 894 96 bng 15 250 50 0 empty empty empty 17 7 0 10 #fcfcfc #000000
#000000;
#X obj 902 123 pack f f;
#X obj 875 192 print;
#X msg 893 153 groove_val \$1 \$2;
#X obj 202 313 unpack f f f f f f f f f f f f f f f f f f f f f f f
f f f f f f f f f, f 80;
#X obj 796 314 unpack f f f f f f f f f f f f f f f f f f f f f f f
f f f f f f f f f, f 80;
#X obj 1081 182 print;
#X obj 1062 102 bng 15 250 50 0 empty empty empty 17 7 0 10 #fcfcfc
#000000 #000000;
#X obj 722 51 inlet;
#X obj 824 58 inlet;
#X obj 1024 51 inlet;
#X text 674 27 output v \, ut;
#X text 788 26 set single groove value;
#X text 1009 14 bang to dump whole groove;
#X obj 1247 81 inlet;
#X text 1240 47 bang to clear v \, ut;
#X obj 1151 268 print;
#X floatatom 227 593 5 0 0 0 - - - 0;
#X obj 200 355 s v1r, f 1;
#X obj 218 354 s v2r, f 1;
#X obj 236 355 s v3r, f 1;
#X obj 254 354 s v4r, f 1;
#X obj 271 354 s v5r, f 1;
#X obj 289 353 s v6r, f 1;
#X obj 309 354 s v7r, f 1;
#X obj 327 353 s v8r, f 1;
#X obj 345 354 s v9r, f 1;
#X obj 363 353 s v10r, f 1;
#X obj 380 353 s v11r, f 1;
#X obj 398 352 s v12r, f 1;
#X obj 414 353 s v13r, f 1;
#X obj 432 352 s v14r, f 1;
#X obj 450 353 s v15r, f 1;
#X obj 468 352 s v16r, f 1;
#X obj 485 352 s v17r, f 1;
#X obj 503 351 s v18r, f 1;
#X obj 523 352 s v19r, f 1;
#X obj 541 351 s v20r, f 1;
#X obj 559 352 s v21r, f 1;
#X obj 577 351 s v22r, f 1;
#X obj 594 351 s v23r, f 1;
#X obj 612 350 s v24r, f 1;
#X obj 631 350 s v25r, f 1;
#X obj 648 349 s v26r, f 1;
#X obj 666 350 s v27r, f 1;
#X obj 684 349 s v28r, f 1;
#X obj 701 349 s v29r, f 1;
#X obj 719 348 s v30r, f 1;
#X obj 739 349 s v31r, f 1;
#X obj 757 348 s v32r, f 1;
#X obj 794 356 s ut1r, f 1;
#X obj 812 355 s ut2r, f 1;
#X obj 830 356 s ut3r, f 1;
#X obj 848 355 s ut4r, f 1;
#X obj 865 355 s ut5r, f 1;
#X obj 883 354 s ut6r, f 1;
#X obj 903 355 s ut7r, f 1;
#X obj 921 354 s ut8r, f 1;
#X obj 939 355 s ut9r, f 1;
#X obj 957 354 s ut10r, f 1;
#X obj 974 354 s ut11r, f 1;
#X obj 992 353 s ut12r, f 1;
#X obj 1008 354 s ut13r, f 1;
#X obj 1026 353 s ut14r, f 1;
#X obj 1044 354 s ut15r, f 1;
#X obj 1062 353 s ut16r, f 1;
#X obj 1079 353 s ut17r, f 1;
#X obj 1097 352 s ut18r, f 1;
#X obj 1117 353 s ut19r, f 1;
#X obj 1135 352 s ut20r, f 1;
#X obj 1153 353 s ut21r, f 1;
#X obj 1171 352 s ut22r, f 1;
#X obj 1188 352 s ut23r, f 1;
#X obj 1206 351 s ut24r, f 1;
#X obj 1225 351 s ut25r, f 1;
#X obj 1242 350 s ut26r, f 1;
#X obj 1260 351 s ut27r, f 1;
#X obj 1278 350 s ut28r, f 1;
#X obj 1295 350 s ut29r, f 1;
#X obj 1313 349 s ut30r, f 1;
#X obj 1333 350 s ut31r, f 1;
#X obj 1351 349 s ut32r, f 1;
#X obj 1090 131 tabdump groove2;
#X obj 329 250 print vXr's:;
#X obj 1016 269 print utXr's:;
#X obj 1251 127 bng 15 250 50 0 empty empty empty 17 7 0 10 #fcfcfc
#000000 #000000;
#X connect 0 0 8 0;
#X connect 0 0 87 0;
#X connect 0 1 9 0;
#X connect 0 1 88 0;
#X connect 0 2 20 0;
#X connect 1 0 0 1;
#X connect 2 0 5 0;
#X connect 3 0 5 1;
#X connect 4 0 5 0;
#X connect 5 0 7 0;
#X connect 7 0 6 0;
#X connect 7 0 0 2;
#X connect 8 0 22 0;
#X connect 8 1 23 0;
#X connect 8 2 24 0;
#X connect 8 3 25 0;
#X connect 8 4 26 0;
#X connect 8 5 27 0;
#X connect 8 6 28 0;
#X connect 8 7 29 0;
#X connect 8 8 30 0;
#X connect 8 9 31 0;
#X connect 8 10 32 0;
#X connect 8 11 33 0;
#X connect 8 12 34 0;
#X connect 8 13 35 0;
#X connect 8 14 36 0;
#X connect 8 15 37 0;
#X connect 8 16 38 0;
#X connect 8 17 39 0;
#X connect 8 18 40 0;
#X connect 8 19 41 0;
#X connect 8 20 42 0;
#X connect 8 21 43 0;
#X connect 8 22 44 0;
#X connect 8 23 45 0;
#X connect 8 24 46 0;
#X connect 8 25 47 0;
#X connect 8 26 48 0;
#X connect 8 27 49 0;
#X connect 8 28 50 0;
#X connect 8 29 51 0;
#X connect 8 30 52 0;
#X connect 8 31 53 0;
#X connect 9 0 54 0;
#X connect 9 1 55 0;
#X connect 9 2 56 0;
#X connect 9 3 57 0;
#X connect 9 4 58 0;
#X connect 9 5 59 0;
#X connect 9 6 60 0;
#X connect 9 7 61 0;
#X connect 9 8 62 0;
#X connect 9 9 63 0;
#X connect 9 10 64 0;
#X connect 9 11 65 0;
#X connect 9 12 66 0;
#X connect 9 13 67 0;
#X connect 9 14 68 0;
#X connect 9 15 69 0;
#X connect 9 16 70 0;
#X connect 9 17 71 0;
#X connect 9 18 72 0;
#X connect 9 19 73 0;
#X connect 9 20 74 0;
#X connect 9 21 75 0;
#X connect 9 22 76 0;
#X connect 9 23 77 0;
#X connect 9 24 78 0;
#X connect 9 25 79 0;
#X connect 9 26 80 0;
#X connect 9 27 81 0;
#X connect 9 28 82 0;
#X connect 9 29 21 0;
#X connect 9 29 83 0;
#X connect 9 30 84 0;
#X connect 9 31 85 0;
#X connect 11 0 86 0;
#X connect 12 0 0 1;
#X connect 13 0 0 2;
#X connect 14 0 86 0;
#X connect 18 0 0 4;
#X connect 86 0 10 0;
#X connect 86 0 0 3;
#X connect 89 0 0 4;
#X restore 1362 688 pd v_ut_unpacker;
#X obj 1493 656 bng 15 250 50 0 empty empty clear 17 7 0 10 #fcfcfc
#000000 #000000;
#X obj 1442 627 bng 15 250 50 0 empty empty send\\\ whole\\\ groove
17 7 0 10 #fcfcfc #000000 #000000;
#X obj 1356 637 bng 15 250 50 0 empty empty update\\\ vut 17 7 0 10
#fcfcfc #000000 #000000;
#X msg 1881 -40 0.2;
#X obj 1153 228 print VAL;
#X obj 1107 726 r current_pos;
#X floatatom 1117 780 5 0 0 0 - - - 0;
#N canvas 936 277 1517 787 drums 0;
#X floatatom 244 345 5 0 0 0 - - - 0;
#X obj 244 309 r step_idx;
#X obj 499 308 bng 15 250 50 0 empty empty empty 17 7 0 10 #fcfcfc
#000000 #000000;
#X floatatom 499 362 5 0 0 0 - - - 0;
#X obj 128 125 hsl 512 15 0 3072 0 0 current_pos tick_idx empty -2
-8 0 10 #dcdcdc #000000 #000000 0 1;
#X obj 345 212 bng 15 250 50 0 empty empty reset\\\ groove 17 7 0 10
#fcfcfc #000000 #000000;
#X obj 140 308 r tick_idx;
#X floatatom 139 339 5 0 0 0 - - - 0;
#X msg 344 336 \; groove2 const 0;
#X obj 499 334 arraysize groove2;
#X obj 837 187 r reset;
#X obj 366 282 s clear_groove_r;
#X connect 1 0 0 0;
#X connect 2 0 9 0;
#X connect 5 0 8 0;
#X connect 5 0 11 0;
#X connect 6 0 7 0;
#X connect 9 0 3 0;
#X connect 10 0 5 0;
#X coords 0 -1 1 1 600 150 1 100 100;
#X restore 671 534 pd drums;
#X obj 1813 889 bng 15 250 50 0 empty empty empty 17 7 0 10 #fcfcfc
#000000 #000000;
#X obj 1210 1065 s force_resend_data_to_py;
#N canvas 618 131 1302 773 write_gesture_to_groove2 0;
#X obj 193 40 r gesture_magnitude;
#X obj 249 84 r tick_idx;
#X obj 239 191 pack f f;
#X obj 343 40 r step_idx;
#X obj 314 131 multiplex;
#X floatatom 453 155 5 0 0 0 - - - 0;
#X obj 343 81 expr ($f1 * 192);
#X floatatom 247 119 5 0 0 0 - - - 0;
#X obj 239 232 print TO_GROOVE: gesture \, tick idx:;
#X floatatom 539 177 5 0 0 0 - - - 0;
#X floatatom 115 82 5 0 0 0 - - - 0;
#X obj 568 77 clip 0 127, f 9;
#X obj 0 45 r gesture_sensitivity;
#X obj 686 65 r gesture_bang;
#X obj 685 100 bng 15 250 50 0 empty empty empty 17 7 0 10 #fcfcfc
#000000 #000000;
#X text 475 20 TODO: set grid to divisors of 192 (which is ticks/step)
;
#X floatatom 179 82 5 0 0 0 - - - 0;
#X obj 350 299 tabwrite groove2;
#X obj 472 -14 inlet;
#X text 355 -16 toggle: quantize;
#X obj 467 388 t b b b b b b b b b b b b b b b b b b b b b b b;
#X obj 794 465 bng 15 250 50 0 empty empty empty 17 7 0 10 #fcfcfc
#000000 #000000;
#X obj 460 481 bng 15 250 50 0 empty empty empty 17 7 0 10 #fcfcfc
#000000 #000000;
#X obj 449 551 outlet;
#X obj 784 541 outlet;
#X text 623 148 WRITE ONLY when r write_groove!;
#X obj 732 198 r write_groove;
#X floatatom 632 231 5 0 0 0 - - - 0;
#X obj 509 258 spigot;
#X obj 563 319 spigot;
#X connect 0 0 2 0;
#X connect 0 0 11 0;
#X connect 0 0 16 0;
#X connect 1 0 4 0;
#X connect 1 0 7 0;
#X connect 2 0 8 0;
#X connect 3 0 6 0;
#X connect 4 0 2 1;
#X connect 4 0 17 1;
#X connect 6 0 4 1;
#X connect 6 0 5 0;
#X connect 9 0 28 0;
#X connect 11 0 9 0;
#X connect 12 0 10 0;
#X connect 13 0 14 0;
#X connect 14 0 9 0;
#X connect 14 0 29 0;
#X connect 18 0 4 2;
#X connect 20 0 22 0;
#X connect 20 22 21 0;
#X connect 21 0 24 0;
#X connect 22 0 23 0;
#X connect 26 0 27 0;
#X connect 27 0 28 1;
#X connect 27 0 29 1;
#X connect 28 0 17 0;
#X connect 29 0 20 0;
#X restore 1024 409 pd write_gesture_to_groove2;
#X obj -193 236 source/res/clock;
#X obj 1897 -132 inlet;
#X obj 1981 -133 bng 15 250 50 0 empty empty empty 17 7 0 10 #fcfcfc
#000000 #000000;
#X obj -120 49 r bpm;
#X obj 1168 462 s trigger_vut_calc;
#X obj 1011 461 s update_vutr;
#X obj 1468 582 r trigger_vut_calc;
#X obj 1311 581 r update_vutr;
#X obj 1623 616 r reset;
#X obj 114 316 hsl 512 15 0 3072 0 0 current_pos playback_pos empty
-2 -8 0 10 #dc782f #000000 #000000 0 1;
#X obj 113 334 vsl 16 125 0 127 0 0 v1 v1r empty 0 -9 0 10 #dc782f
#fcfcfc #000000 0 0;
#X obj 116 462 hsl 11 8 -0.5 0.49 0 0 ut1 ut1r empty -2 -8 0 4 #7c7c7c
#fcfcfc #000000 0 0;
#X obj 129 334 vsl 16 125 0 127 0 0 v2 v2r empty 0 -9 0 10 #fcfcfc
#202020 #000000 0 0;
#X obj 132 462 hsl 11 8 -0.5 0.49 0 0 ut2 ut2r empty -2 -8 0 4 #fcfcfc
#000000 #000000 0 0;
#X obj 145 334 vsl 16 125 0 127 0 0 v3 v3r empty 0 -9 0 10 #fcfcfc
#202020 #000000 0 0;
#X obj 148 462 hsl 11 8 -0.5 0.49 0 0 ut3 ut3r empty -2 -8 0 4 #fcfcfc
#000000 #000000 0 0;
#X obj 161 334 vsl 16 125 0 127 0 0 v4 v4r empty 0 -9 0 10 #fcfcfc
#202020 #000000 0 0;
#X obj 164 462 hsl 11 8 -0.5 0.49 0 0 ut4 ut4r empty -2 -8 0 4 #fcfcfc
#000000 #000000 0 0;
#X obj 177 334 vsl 16 125 0 127 0 0 v5 v5r empty 0 -9 0 10 #ffdab9
#202020 #000000 0 0;
#X obj 180 462 hsl 11 8 -0.5 0.49 0 0 ut5 ut5r empty -2 -8 0 4 #dcdcdc
#202020 #000000 0 0;
#X obj 193 334 vsl 16 125 0 127 0 0 v6 v6r empty 0 -9 0 10 #fcfcfc
#202020 #000000 0 0;
#X obj 196 462 hsl 11 8 -0.5 0.49 0 0 ut6 ut6r empty -2 -8 0 4 #fcfcfc
#000000 #000000 0 0;
#X obj 209 334 vsl 16 125 0 127 0 0 v7 v7r empty 0 -9 0 10 #fcfcfc
#202020 #000000 0 0;
#X obj 212 462 hsl 11 8 -0.5 0.49 0 0 ut7 ut7r empty -2 -8 0 4 #fcfcfc
#000000 #000000 0 0;
#X obj 225 334 vsl 16 125 0 127 0 0 v8 v8r empty 0 -9 0 10 #fcfcfc
#202020 #000000 0 0;
#X obj 228 462 hsl 11 8 -0.5 0.49 0 0 ut8 ut8r empty -2 -8 0 4 #fcfcfc
#000000 #000000 0 0;
#X obj 241 334 vsl 16 125 0 127 0 0 v9 v9r empty 0 -9 0 10 #ffd9ba
#202020 #000000 0 0;
#X obj 244 462 hsl 11 8 -0.5 0.49 0 0 ut9 ut9r empty -2 -8 0 4 #dcdcdc
#202020 #000000 0 0;
#X obj 257 334 vsl 16 125 0 127 0 0 v10 v10r empty 0 -9 0 10 #fcfcfc
#202020 #000000 0 0;
#X obj 260 462 hsl 11 8 -0.5 0.49 0 0 ut10 ut10r empty -2 -8 0 4 #fcfcfc
#000000 #000000 0 0;
#X obj 273 334 vsl 16 125 0 127 0 0 v11 v11r empty 0 -9 0 10 #fcfcfc
#202020 #000000 0 0;
#X obj 276 462 hsl 11 8 -0.5 0.49 0 0 ut11 ut11r empty -2 -8 0 4 #fcfcfc
#000000 #000000 0 0;
#X obj 289 334 vsl 16 125 0 127 0 0 v12 v12r empty 0 -9 0 10 #fcfcfc
#202020 #000000 0 0;
#X obj 292 462 hsl 11 8 -0.5 0.49 0 0 ut12 ut12r empty -2 -8 0 4 #fcfcfc
#000000 #000000 0 0;
#X obj 305 334 vsl 16 125 0 127 0 0 v13 v13r empty 0 -9 0 10 #ffdab8
#202020 #000000 0 0;
#X obj 308 462 hsl 11 8 -0.5 0.49 0 0 ut13 ut13r empty -2 -8 0 4 #dcdcdc
#202020 #000000 0 0;
#X obj 321 334 vsl 16 125 0 127 0 0 v14 v14r empty 0 -9 0 10 #fcfcfc
#202020 #000000 0 0;
#X obj 324 462 hsl 11 8 -0.5 0.49 0 0 ut14 ut14r empty -2 -8 0 4 #fcfcfc
#000000 #000000 0 0;
#X obj 337 334 vsl 16 125 0 127 0 0 v15 v15r empty 0 -9 0 10 #fcfcfc
#202020 #000000 0 0;
#X obj 340 462 hsl 11 8 -0.5 0.49 0 0 ut15 ut15r empty -2 -8 0 4 #fcfcfc
#000000 #000000 0 0;
#X obj 353 334 vsl 16 125 0 127 0 0 v16 v16r empty 0 -9 0 10 #fcfcfc
#202020 #000000 0 0;
#X obj 356 462 hsl 11 8 -0.5 0.49 0 0 ut16 ut16r empty -2 -8 0 4 #fcfcfc
#000000 #000000 0 0;
#X obj 369 334 vsl 16 125 0 127 0 0 v17 v17r empty 0 -9 0 10 #dc772f
#fcfcfc #000000 0 0;
#X obj 372 462 hsl 11 8 -0.5 0.49 0 0 ut17 ut17r empty -2 -8 0 4 #7c7c7c
#fcfcfc #000000 0 0;
#X obj 385 334 vsl 16 125 0 127 0 0 v18 v18r empty 0 -9 0 10 #fcfcfc
#202020 #000000 0 0;
#X obj 388 462 hsl 11 8 -0.5 0.49 0 0 ut18 ut18r empty -2 -8 0 4 #fcfcfc
#000000 #000000 0 0;
#X obj 401 334 vsl 16 125 0 127 0 0 v19 v19r empty 0 -9 0 10 #fcfcfc
#202020 #000000 0 0;
#X obj 404 462 hsl 11 8 -0.5 0.49 0 0 ut19 ut19r empty -2 -8 0 4 #fcfcfc
#000000 #000000 0 0;
#X obj 417 334 vsl 16 125 0 127 0 0 v20 v20r empty 0 -9 0 10 #fcfcfc
#202020 #000000 0 0;
#X obj 420 462 hsl 11 8 -0.5 0.49 0 0 ut20 ut20r empty -2 -8 0 4 #fcfcfc
#000000 #000000 0 0;
#X obj 433 334 vsl 16 125 0 127 0 0 v21 v21r empty 0 -9 0 10 #ffd8ba
#202020 #000000 0 0;
#X obj 436 462 hsl 11 8 -0.5 0.49 0 0 ut21 ut21r empty -2 -8 0 4 #dcdcdc
#202020 #000000 0 0;
#X obj 449 334 vsl 16 125 0 127 0 0 v22 v22r empty 0 -9 0 10 #fcfcfc
#202020 #000000 0 0;
#X obj 452 462 hsl 11 8 -0.5 0.49 0 0 ut22 ut22r empty -2 -8 0 4 #fcfcfc
#000000 #000000 0 0;
#X obj 465 334 vsl 16 125 0 127 0 0 v23 v23r empty 0 -9 0 10 #fcfcfc
#202020 #000000 0 0;
#X obj 468 462 hsl 11 8 -0.5 0.49 0 0 ut23 ut23r empty -2 -8 0 4 #fcfcfc
#000000 #000000 0 0;
#X obj 481 334 vsl 16 125 0 127 0 0 v24 v24r empty 0 -9 0 10 #fcfcfc
#202020 #000000 0 0;
#X obj 484 462 hsl 11 8 -0.5 0.49 0 0 ut24 ut24r empty -2 -8 0 4 #fcfcfc
#000000 #000000 0 0;
#X obj 497 334 vsl 16 125 0 127 0 0 v25 v25r empty 0 -9 0 10 #ffd7b9
#202020 #000000 0 0;
#X obj 500 462 hsl 11 8 -0.5 0.49 0 0 ut25 ut25r empty -2 -8 0 4 #dcdcdc
#202020 #000000 0 0;
#X obj 513 334 vsl 16 125 0 127 0 0 v26 v26r empty 0 -9 0 10 #fcfcfc
#202020 #000000 0 0;
#X obj 516 462 hsl 11 8 -0.5 0.49 0 0 ut26 ut26r empty -2 -8 0 4 #fcfcfc
#000000 #000000 0 0;
#X obj 529 334 vsl 16 125 0 127 0 0 v27 v27r empty 0 -9 0 10 #fcfcfc
#202020 #000000 0 0;
#X obj 532 462 hsl 11 8 -0.5 0.49 0 0 ut27 ut27r empty -2 -8 0 4 #fcfcfc
#000000 #000000 0 0;
#X obj 545 334 vsl 16 125 0 127 0 0 v28 v28r empty 0 -9 0 10 #fcfcfc
#202020 #000000 0 0;
#X obj 548 462 hsl 11 8 -0.5 0.49 0 0 ut28 ut28r empty -2 -8 0 4 #fcfcfc
#000000 #000000 0 0;
#X obj 561 334 vsl 16 125 0 127 0 0 v29 v29r empty 0 -9 0 10 #ffd6b9
#202020 #000000 0 0;
#X obj 564 462 hsl 11 8 -0.5 0.49 0 0 ut29 ut29r empty -2 -8 0 4 #dcdcdc
#202020 #000000 0 0;
#X obj 577 334 vsl 16 125 0 127 0 0 v30 v30r empty 0 -9 0 10 #fcfcfc
#202020 #000000 0 0;
#X obj 580 462 hsl 11 8 -0.5 0.49 0 0 ut30 ut30r empty -2 -8 0 4 #fcfcfc
#000000 #000000 0 0;
#X obj 593 334 vsl 16 125 0 127 0 0 v31 v31r empty 0 -9 0 10 #fcfcfc
#202020 #000000 0 0;
#X obj 596 462 hsl 11 8 -0.5 0.49 0 0 ut31 ut31r empty -2 -8 0 4 #fcfcfc
#000000 #000000 0 0;
#X obj 609 334 vsl 16 125 0 127 0 0 v32 v32r empty 0 -9 0 10 #fcfcfc
#202020 #000000 0 0;
#X obj 612 462 hsl 11 8 -0.5 0.49 0 0 ut32 ut32r empty -2 -8 0 4 #fcfcfc
#000000 #000000 0 0;
#N canvas 1013 287 450 278 (subpatch) 0;
#X array HH_CLOSED 3072 float 2;
#X coords 0 1 3072 0 512 7 2 0 0;
#X restore 113 255 graph;
#N canvas 0 22 450 278 (subpatch) 0;
#X array HH_OPEN 3072 float 2;
#X coords 0 1 3072 0 512 7 2 0 0;
#X restore 113 263 graph;
#N canvas 0 22 450 278 (subpatch) 0;
#X array TOM_3_LO 3072 float 2;
#X coords 0 1 3072 0 512 7 2 0 0;
#X restore 113 270 graph;
#N canvas 0 22 450 278 (subpatch) 0;
#X array TOM_2_MID 3072 float 2;
#X coords 0 1 3072 0 512 7 1 0 0;
#X restore 113 278 graph;
#N canvas 0 22 450 278 (subpatch) 0;
#X array TOM_1_HI 3072 float 2;
#X coords 0 1 3072 0 512 7 2 0 0;
#X restore 113 286 graph;
#N canvas 0 22 450 278 (subpatch) 0;
#X array CRASH 3072 float 2;
#X coords 0 1 3072 0 512 7 2 0 0;
#X restore 113 294 graph;
#N canvas 0 22 450 278 (subpatch) 0;
#X array RIDE 3072 float 2;
#X coords 0 1 3072 0 512 7 2 0 0;
#X restore 113 302 graph;
#N canvas 0 23 450 278 (subpatch) 0;
#X array KICK 3072 float 2;
#X coords 0 1 3072 0 512 7 1 0 0;
#X restore 113 239 graph;
#N canvas 950 218 450 278 (subpatch) 0;
#X array SNARE 3072 float 2;
#X coords 0 1 3072 0 512 7 1 0 0;
#X restore 113 247 graph;
#N canvas 257 304 450 278 (subpatch) 0;
#X array groove2 3072 float 2;
#X coords 0 127 3072 0 512 70 1 0 0;
#X restore 112 238 graph;
#X obj 112 105 vsl 16 125 127 0 0 0 v1 v1r empty 0 -9 0 10 #dc782f
#fcfcfc #000000 0 0;
#X obj 128 105 vsl 16 125 127 0 0 0 v2 v2r empty 0 -9 0 10 #fcfcfc
#202020 #000000 0 0;
#X obj 144 105 vsl 16 125 127 0 0 0 v3 v3r empty 0 -9 0 10 #fcfcfc
#202020 #000000 0 0;
#X obj 160 105 vsl 16 125 127 0 0 0 v4 v4r empty 0 -9 0 10 #fcfcfc
#202020 #000000 0 0;
#X obj 176 105 vsl 16 125 127 0 0 0 v5 v5r empty 0 -9 0 10 #ffdab9
#202020 #000000 0 0;
#X obj 192 105 vsl 16 125 127 0 0 0 v6 v6r empty 0 -9 0 10 #fcfcfc
#202020 #000000 0 0;
#X obj 208 105 vsl 16 125 127 0 0 0 v7 v7r empty 0 -9 0 10 #fcfcfc
#202020 #000000 0 0;
#X obj 224 105 vsl 16 125 127 0 0 0 v8 v8r empty 0 -9 0 10 #fcfcfc
#202020 #000000 0 0;
#X obj 240 105 vsl 16 125 127 0 0 0 v9 v9r empty 0 -9 0 10 #ffd9ba
#202020 #000000 0 0;
#X obj 256 105 vsl 16 125 127 0 0 0 v10 v10r empty 0 -9 0 10 #fcfcfc
#202020 #000000 0 0;
#X obj 272 105 vsl 16 125 127 0 0 0 v11 v11r empty 0 -9 0 10 #fcfcfc
#202020 #000000 0 0;
#X obj 288 105 vsl 16 125 127 0 0 0 v12 v12r empty 0 -9 0 10 #fcfcfc
#202020 #000000 0 0;
#X obj 304 105 vsl 16 125 127 0 0 0 v13 v13r empty 0 -9 0 10 #ffdab8
#202020 #000000 0 0;
#X obj 320 105 vsl 16 125 127 0 0 0 v14 v14r empty 0 -9 0 10 #fcfcfc
#202020 #000000 0 0;
#X obj 336 105 vsl 16 125 127 0 0 0 v15 v15r empty 0 -9 0 10 #fcfcfc
#202020 #000000 0 0;
#X obj 352 105 vsl 16 125 127 0 0 0 v16 v16r empty 0 -9 0 10 #fcfcfc
#202020 #000000 0 0;
#X obj 368 105 vsl 16 125 127 0 0 0 v17 v17r empty 0 -9 0 10 #dc772f
#fcfcfc #000000 0 0;
#X obj 384 105 vsl 16 125 127 0 0 0 v18 v18r empty 0 -9 0 10 #fcfcfc
#202020 #000000 0 0;
#X obj 400 105 vsl 16 125 127 0 0 0 v19 v19r empty 0 -9 0 10 #fcfcfc
#202020 #000000 0 0;
#X obj 416 105 vsl 16 125 127 0 0 0 v20 v20r empty 0 -9 0 10 #fcfcfc
#202020 #000000 0 0;
#X obj 432 105 vsl 16 125 127 0 0 0 v21 v21r empty 0 -9 0 10 #ffd8ba
#202020 #000000 0 0;
#X obj 448 105 vsl 16 125 127 0 0 0 v22 v22r empty 0 -9 0 10 #fcfcfc
#202020 #000000 0 0;
#X obj 464 105 vsl 16 125 127 0 0 0 v23 v23r empty 0 -9 0 10 #fcfcfc
#202020 #000000 0 0;
#X obj 480 105 vsl 16 125 127 0 0 0 v24 v24r empty 0 -9 0 10 #fcfcfc
#202020 #000000 0 0;
#X obj 496 105 vsl 16 125 127 0 0 0 v25 v25r empty 0 -9 0 10 #ffd7b9
#202020 #000000 0 0;
#X obj 512 105 vsl 16 125 127 0 0 0 v26 v26r empty 0 -9 0 10 #fcfcfc
#202020 #000000 0 0;
#X obj 528 105 vsl 16 125 127 0 0 0 v27 v27r empty 0 -9 0 10 #fcfcfc
#202020 #000000 0 0;
#X obj 544 105 vsl 16 125 127 0 0 0 v28 v28r empty 0 -9 0 10 #fcfcfc
#202020 #000000 0 0;
#X obj 560 105 vsl 16 125 127 0 0 0 v29 v29r empty 0 -9 0 10 #ffd6b9
#202020 #000000 0 0;
#X obj 576 105 vsl 16 125 127 0 0 0 v30 v30r empty 0 -9 0 10 #fcfcfc
#202020 #000000 0 0;
#X obj 592 105 vsl 16 125 127 0 0 0 v31 v31r empty 0 -9 0 10 #fcfcfc
#202020 #000000 0 0;
#X obj 608 105 vsl 16 125 127 0 0 0 v32 v32r empty 0 -9 0 10 #fcfcfc
#202020 #000000 0 0;
#X obj 1440 -89 s run;
#X obj 1560 -91 s write_groove;
#X obj 1262 320 spigot;
#X obj 1349 286 r write_groove;
#X obj 1405 327 spigot;
#X obj 1149 -80 s gogogo;
#X obj 1749 -52 s drumVol;
#X obj 642 -36 r drumVol;
#X floatatom 1980 -101 5 0 0 0 - - - 0;
#X obj 1897 -73 s force_recalculate_r;
#X obj 521 766 monotonic_groove_stuff;
#X connect 0 0 178 1;
#X connect 1 0 103 0;
#X connect 4 0 96 0;
#X connect 8 0 50 0;
#X connect 10 0 24 0;
#X connect 11 0 25 0;
#X connect 12 0 26 0;
#X connect 13 0 27 0;
#X connect 14 0 28 0;
#X connect 15 0 29 0;
#X connect 16 0 30 0;
#X connect 17 0 31 0;
#X connect 18 0 32 0;
#X connect 19 0 33 0;
#X connect 20 0 34 0;
#X connect 21 0 35 0;
#X connect 22 0 36 0;
#X connect 23 0 37 0;
#X connect 24 0 40 1;
#X connect 24 0 41 1;
#X connect 24 0 47 1;
#X connect 24 0 79 1;
#X connect 24 0 80 1;
#X connect 24 0 81 1;
#X connect 28 0 38 0;
#X connect 32 0 39 0;
#X connect 33 0 44 0;
#X connect 34 0 43 0;
#X connect 35 0 42 0;
#X connect 36 0 48 0;
#X connect 37 0 299 0;
#X connect 40 0 6 0;
#X connect 41 0 7 0;
#X connect 45 0 40 0;
#X connect 46 0 41 0;
#X connect 47 0 8 0;
#X connect 49 0 47 0;
#X connect 50 0 9 0;
#X connect 51 0 52 0;
#X connect 51 0 114 2;
#X connect 52 0 54 0;
#X connect 53 0 52 1;
#X connect 54 0 55 0;
#X connect 55 0 56 0;
#X connect 56 0 57 0;
#X connect 58 0 60 0;
#X connect 59 0 58 1;
#X connect 60 0 61 0;
#X connect 61 0 62 0;
#X connect 62 0 69 0;
#X connect 63 0 65 0;
#X connect 64 0 63 1;
#X connect 65 0 66 0;
#X connect 66 0 67 0;
#X connect 67 0 70 0;
#X connect 68 0 58 0;
#X connect 68 0 114 3;
#X connect 71 0 63 0;
#X connect 71 0 114 4;
#X connect 76 0 79 0;
#X connect 77 0 80 0;
#X connect 78 0 81 0;
#X connect 79 0 72 0;
#X connect 80 0 73 0;
#X connect 81 0 74 0;
#X connect 81 0 75 0;
#X connect 83 0 84 0;
#X connect 84 0 85 0;
#X connect 86 0 87 0;
#X connect 87 0 90 0;
#X connect 88 0 89 0;
#X connect 89 0 294 0;
#X connect 91 0 0 0;
#X connect 92 0 1 0;
#X connect 93 0 92 0;
#X connect 94 0 95 0;
#X connect 95 0 295 0;
#X connect 96 0 1 0;
#X connect 97 0 99 0;
#X connect 98 0 300 0;
#X connect 99 0 98 0;
#X connect 101 0 100 0;
#X connect 104 0 105 0;
#X connect 105 0 106 0;
#X connect 105 0 107 0;
#X connect 107 0 108 0;
#X connect 108 0 102 0;
#X connect 114 3 149 0;
#X connect 114 3 171 0;
#X connect 114 4 149 0;
#X connect 114 4 298 0;
#X connect 115 0 114 4;
#X connect 116 0 114 3;
#X connect 117 0 114 2;
#X connect 118 0 114 1;
#X connect 120 0 126 0;
#X connect 121 0 114 5;
#X connect 121 0 125 0;
#X connect 121 0 131 0;
#X connect 123 0 177 0;
#X connect 126 0 118 0;
#X connect 127 0 129 0;
#X connect 129 0 128 0;
#X connect 129 0 114 6;
#X connect 132 0 150 0;
#X connect 134 0 140 0;
#X connect 134 0 136 0;
#X connect 134 0 137 0;
#X connect 134 0 138 0;
#X connect 134 0 139 0;
#X connect 134 0 135 0;
#X connect 141 0 142 0;
#X connect 141 0 143 0;
#X connect 144 0 145 0;
#X connect 144 0 146 0;
#X connect 144 0 147 0;
#X connect 144 0 170 0;
#X connect 145 0 121 0;
#X connect 146 0 127 0;
#X connect 147 0 141 0;
#X connect 148 0 149 1;
#X connect 149 0 119 0;
#X connect 149 0 296 0;
#X connect 150 0 151 0;
#X connect 151 0 130 0;
#X connect 152 0 153 0;
#X connect 152 0 154 0;
#X connect 155 0 114 7;
#X connect 159 0 162 0;
#X connect 160 0 162 1;
#X connect 161 0 162 0;
#X connect 162 0 164 0;
#X connect 164 0 163 0;
#X connect 164 0 166 1;
#X connect 165 0 158 0;
#X connect 167 0 166 3;
#X connect 168 0 166 2;
#X connect 169 0 166 0;
#X connect 170 0 152 0;
#X connect 172 0 173 0;
#X connect 175 0 176 0;
#X connect 177 0 183 0;
#X connect 177 1 182 0;
#X connect 178 0 104 0;
#X connect 178 0 112 0;
#X connect 179 0 302 0;
#X connect 179 0 303 0;
#X connect 180 0 303 0;
#X connect 181 0 1 0;
#X connect 184 0 168 0;
#X connect 185 0 169 0;
#X connect 186 0 167 0;
#X connect 296 0 122 0;
#X connect 297 0 296 1;
#X connect 297 0 298 1;
#X connect 298 0 133 0;
#X connect 301 0 101 0;
#X coords 0 -1 1 1 860 380 2 100 100;
