#N canvas 552 333 1262 582 12;
#X obj 92 245 pack f f f;
#X msg 92 278 \$1 \, \$2 \$3;
#X text 177 278 // start \, end duration;
#X obj 90 317 vline~;
#X obj 234 419 hsl 128 15 0 2 0 0 empty empty grain\\\ volume -2 -8
0 10 #fcfcfc #000000 #000000 0 1;
#X floatatom 176 410 5 0 0 0 - - - 0;
#X obj 138 409 sig~;
#X obj 96 413 *~;
#X floatatom 167 129 5 0 1000 2 grain\ duration\ (ms) - - 0;
#X obj 156 157 * 44.1;
#X obj 124 210 +;
#X floatatom 63 121 13 0 0 2 start\ time\ (ms) - - 0;
#X obj 63 181 t f f;
#X floatatom 335 130 5 0.05 3 0 grain\ speed - - 0;
#X obj 262 168 t b f;
#X obj 208 214 / 1;
#X obj 63 154 * 44.1;
#X msg 229 376 1;
#X obj 230 352 r reset;
#X msg 253 89 1;
#X msg 207 89 100;
#X obj 228 57 r reset;
#X obj 60 51 inlet;
#X obj 142 48 r grainDur;
#X obj 339 64 r grainSpeed;
#X obj 94 535 outlet~;
#X obj 316 352 r grainVolume;
#X obj 153 482 *~;
#X obj 515 303 - 10;
#X obj 500 343 f;
#X obj 495 416 vline~;
#X obj 475 310 bng 15 250 50 0 empty empty empty 17 7 0 10 #fcfcfc
#000000 #000000;
#X text 551 341 // volume envelope - simple ramp;
#X text 252 216 // modify grain dur according to speed;
#X obj 78 354 tabread4~ audioIn;
#X text 326 730 comment;
#X obj 741 436 vline~;
#X obj 738 484 cos~;
#X obj 738 516 *~ -1;
#X obj 737 548 +~ 1;
#X obj 734 579 /~ 2;
#X msg 741 408 0.5 20 \, 0 20 \$1;
#X msg 497 388 1 20 \, 0 20 \$1;
#X connect 0 0 1 0;
#X connect 1 0 3 0;
#X connect 1 0 31 0;
#X connect 3 0 34 0;
#X connect 4 0 5 0;
#X connect 5 0 6 0;
#X connect 6 0 7 1;
#X connect 7 0 27 0;
#X connect 8 0 9 0;
#X connect 8 0 15 0;
#X connect 9 0 10 1;
#X connect 10 0 0 1;
#X connect 11 0 16 0;
#X connect 12 0 0 0;
#X connect 12 1 10 0;
#X connect 13 0 14 0;
#X connect 14 0 15 0;
#X connect 14 1 15 1;
#X connect 15 0 0 2;
#X connect 15 0 28 0;
#X connect 16 0 12 0;
#X connect 17 0 4 0;
#X connect 18 0 17 0;
#X connect 19 0 13 0;
#X connect 20 0 8 0;
#X connect 21 0 20 0;
#X connect 21 0 19 0;
#X connect 22 0 11 0;
#X connect 23 0 8 0;
#X connect 24 0 13 0;
#X connect 26 0 4 0;
#X connect 27 0 25 0;
#X connect 28 0 29 1;
#X connect 29 0 42 0;
#X connect 29 0 41 0;
#X connect 31 0 29 0;
#X connect 34 0 7 0;
#X connect 36 0 37 0;
#X connect 37 0 38 0;
#X connect 38 0 39 0;
#X connect 39 0 40 0;
#X connect 40 0 27 1;
#X connect 41 0 36 0;
#X connect 42 0 30 0;
