#N canvas 78 179 1805 769 10;
#X msg 31 38 listen 0;
#X msg 18 5 listen 54321;
#X obj 18 64 netreceive -u -b 54321;
#X obj 18 87 oscparse;
#X text 103 4 MobMuPlat default Output port is 54321;
#X obj 18 109 list trim;
#X text 96 25 If you want to communicate via OSC with your computer
\, simply change the broadcast address to your computer's IP;
#X text 165 58 through this object we should see everything that has
been connected to [send toNetwork] inside the smartphone patch.;
#X floatatom 1229 194 5 0 0 0 - - - 0;
#X text 1265 195 compass value \, in degrees;
#X floatatom 1162 222 5 0 0 0 - - - 0;
#X text 1202 221 GPS location update filter \, in meters (default 1.0).
Val <= 0 sends all updates. Sent on request. Currently iOS only.,
f 53;
#X text 1090 326 device location info. See MMPExamples-GPS.pd for full
explanation., f 67;
#X obj 1094 272 unpack 0 0 0 0 0 0 0 0 0, f 54;
#X floatatom 1094 302 5 0 0 0 - - - 0;
#X floatatom 1134 302 5 0 0 0 - - - 0;
#X floatatom 1174 302 5 0 0 0 - - - 0;
#X floatatom 1214 302 5 0 0 0 - - - 0;
#X floatatom 1254 302 5 0 0 0 - - - 0;
#X floatatom 1294 302 5 0 0 0 - - - 0;
#X floatatom 1334 302 5 0 0 0 - - - 0;
#X floatatom 1374 302 5 0 0 0 - - - 0;
#X floatatom 1415 302 5 0 0 0 - - - 0;
#X text 1064 351 device motion frequency \, in hertz (default 10).
Sent on request. Currently iOS only.;
#X floatatom 1027 356 5 0 0 0 - - - 0;
#X floatatom 960 386 5 0 0 0 - - - 0;
#X floatatom 892 415 5 0 0 0 - - - 0;
#X text 999 383 gyro data frequency \, in hertz (default 10). Sent
on request. Currently iOS only.;
#X text 930 414 accelerometer and tilt data frequency \, in hertz (default
10). Sent on request. Currently iOS only.;
#X obj 690 562 unpack f f f;
#X floatatom 759 584 5 0 0 0 - - - 0;
#X floatatom 724 584 5 0 0 0 - - - 0;
#X floatatom 690 584 5 0 0 0 - - - 0;
#X obj 825 453 unpack f f f;
#X floatatom 894 475 5 0 0 0 - - - 0;
#X floatatom 859 475 5 0 0 0 - - - 0;
#X floatatom 825 475 5 0 0 0 - - - 0;
#X obj 758 508 unpack f f f;
#X floatatom 827 530 5 0 0 0 - - - 0;
#X floatatom 792 530 5 0 0 0 - - - 0;
#X floatatom 758 530 5 0 0 0 - - - 0;
#X floatatom 680 635 5 0 0 0 - - - 0;
#X floatatom 623 635 5 0 0 0 - - - 0;
#X obj 623 613 unpack f f;
#X floatatom 556 670 5 0 0 0 - - - 0;
#X text 594 670 a shake gesture occured (value is always 1). Currently
iOS only., f 67;
#X text 720 634 "cooked" XY tilt values -1 to 1;
#X text 797 586 raw accelerometer data \, x \, y \, z \, range -1 to
1;
#X text 862 529 gyro data \, in radians per second \, around roll \,
pitch \, yaw \, range -pi to +pi, f 77;
#X text 931 476 device attitude in space \, at roll \, pitch \, yaw
\, range -pi to pi, f 63;
#X floatatom 72 200 5 0 0 0 - - - 0;
#X floatatom 135 191 5 0 0 0 - - - 0;
#X floatatom 190 206 6 0 0 0 - - - 0;
#X floatatom 245 200 6 0 0 0 - - - 0;
#X floatatom 313 185 5 0 0 0 - - - 0;
#X floatatom 365 172 5 0 0 0 - - - 0;
#X floatatom 428 187 4 0 0 0 - - - 0;
#X text 32 736 angel.faraldo@upf.edu // 2022;
#X obj 693 713 outlet;
#X obj 749 712 outlet;
#X obj 800 712 outlet;
#X obj 1030 635 expr sqrt(pow($f1 \, 2)+pow($f2 \, 2)+pow($f3 \, 2))
- 1;
#X floatatom 1162 726 5 0 0 0 - - - 0;
#X obj 1229 722 outlet;
#X text 652 738 ATTITUDE outlets;
#X text 1250 693 VELOCITY outled;
#X obj 21 240 outlet;
#X obj 123 356 outlet;
#X obj 471 354 outlet;
#X text 463 386 reset button;
#X obj 402 296 outlet;
#X floatatom 14 198 5 0 0 0 - - - 0;
#X obj 66 296 outlet;
#X obj 187 238 outlet;
#X obj 296 347 outlet;
#X obj 243 300 outlet;
#X obj 1382 662 outlet;
#X text 1371 693 press to play;
#X obj 18 133 route sens_slider g_speed_slider jitter_slider grain_dur_slider
metro_slider smooth_slider vol_slider stationaryToggle resetButton
playButton, f 90;
#X text 0 256 sensitivity slider;
#X text 55 317 grain speed slider;
#X text 120 381 jitter slider;
#X text 197 261 grain duration slider;
#X text 246 323 metro slider;
#X text 294 370 smooth slider;
#X obj 359 237 outlet;
#X text 355 260 volume slider;
#X floatatom 482 196 5 0 0 0 - - - 0;
#X floatatom 529 206 5 0 0 0 - - - 0;
#X text 395 320 stationary toggle;
#X text 527 237 play button;
#X obj 1467 663 outlet;
#X text 1474 684 energy_slider;
#X obj 1494 607 outlet;
#X obj 1578 624 outlet;
#X text 1493 585 //bpm_slider;
#X text 1581 645 //drums_toggle;
#X obj 1612 582 outlet;
#X text 1602 565 //change drum pattern button;
#X obj 1652 541 outlet;
#X text 1645 521 //drum vol slider;
#X floatatom 1611 535 5 0 0 0 - - - 0;
#X floatatom 1652 494 5 0 0 0 - - - 0;
#X obj 570 154 route shake tilts accel gyro motion accelFrequency gyroFrequency
motionFrequency location distanceFilter compass energy_slider bpm_slider
drums_toggle drums_button drum_vol_slider recalculate_button, f 201
;
#X floatatom 1699 448 5 0 0 0 - - - 0;
#X obj 1703 472 outlet;
#X text 1712 491 //recalculate drums;
#X connect 0 0 2 0;
#X connect 1 0 2 0;
#X connect 2 0 3 0;
#X connect 3 0 5 0;
#X connect 5 0 78 0;
#X connect 13 0 14 0;
#X connect 13 1 15 0;
#X connect 13 2 16 0;
#X connect 13 3 17 0;
#X connect 13 4 18 0;
#X connect 13 5 19 0;
#X connect 13 6 20 0;
#X connect 13 7 21 0;
#X connect 13 8 22 0;
#X connect 29 0 32 0;
#X connect 29 0 61 0;
#X connect 29 1 31 0;
#X connect 29 1 61 1;
#X connect 29 2 30 0;
#X connect 29 2 61 2;
#X connect 33 0 36 0;
#X connect 33 0 58 0;
#X connect 33 1 35 0;
#X connect 33 1 59 0;
#X connect 33 2 34 0;
#X connect 33 2 60 0;
#X connect 37 0 40 0;
#X connect 37 1 39 0;
#X connect 37 2 38 0;
#X connect 43 0 42 0;
#X connect 43 1 41 0;
#X connect 61 0 62 0;
#X connect 61 0 63 0;
#X connect 78 0 71 0;
#X connect 78 0 66 0;
#X connect 78 1 50 0;
#X connect 78 1 72 0;
#X connect 78 2 51 0;
#X connect 78 2 67 0;
#X connect 78 3 52 0;
#X connect 78 3 73 0;
#X connect 78 4 53 0;
#X connect 78 4 75 0;
#X connect 78 5 54 0;
#X connect 78 5 74 0;
#X connect 78 6 55 0;
#X connect 78 6 85 0;
#X connect 78 7 56 0;
#X connect 78 7 70 0;
#X connect 78 8 68 0;
#X connect 78 8 87 0;
#X connect 78 9 76 0;
#X connect 78 9 88 0;
#X connect 78 10 103 0;
#X connect 103 0 44 0;
#X connect 103 1 43 0;
#X connect 103 2 29 0;
#X connect 103 3 37 0;
#X connect 103 4 33 0;
#X connect 103 5 26 0;
#X connect 103 6 25 0;
#X connect 103 7 24 0;
#X connect 103 8 13 0;
#X connect 103 9 10 0;
#X connect 103 10 8 0;
#X connect 103 11 91 0;
#X connect 103 12 93 0;
#X connect 103 13 94 0;
#X connect 103 14 97 0;
#X connect 103 14 101 0;
#X connect 103 15 99 0;
#X connect 103 15 102 0;
#X connect 103 16 104 0;
#X connect 103 16 105 0;
