#N canvas -81 66 1920 988 12;
#X obj 786 18 granular_receiver, f 142;
#X obj 1146 396 drum_seq;
#X obj 137 110 everything;
#X connect 0 0 1 0;
#X connect 0 0 2 0;
#X connect 0 1 1 1;
#X connect 0 1 2 1;
#X connect 0 2 1 2;
#X connect 0 2 2 2;
#X connect 0 3 1 3;
#X connect 0 3 2 3;
#X connect 0 4 1 4;
#X connect 0 4 2 4;
#X connect 0 5 1 5;
#X connect 0 5 2 5;
#X connect 0 6 1 6;
#X connect 0 6 2 6;
#X connect 0 7 1 7;
#X connect 0 7 2 7;
#X connect 0 8 1 8;
#X connect 0 8 2 8;
#X connect 0 9 1 9;
#X connect 0 9 2 9;
#X connect 0 10 1 10;
#X connect 0 10 2 10;
#X connect 0 11 1 11;
#X connect 0 11 2 11;
#X connect 0 12 1 12;
#X connect 0 12 2 12;
#X connect 0 13 1 13;
#X connect 0 13 2 13;
#X connect 0 14 1 14;
#X connect 0 14 2 14;
#X connect 0 15 1 15;
#X connect 0 16 1 16;
#X connect 0 17 1 17;
#X connect 0 18 1 18;
#X connect 0 19 1 19;
